<svg width="400" height="400" viewBox="0 0 400 400" xmlns="http://www.w3.org/2000/svg">
<defs>
    <filter id="shadow" x="-20%" y="-20%" width="140%" height="140%">
        <feDropShadow dx="2" dy="4" stdDeviation="3" flood-opacity="0.3"/>
    </filter>
    <filter id="glow" x="-50%" y="-50%" width="200%" height="200%">
        <feGaussianBlur stdDeviation="8" result="blur"/>
        <feMerge><feMergeNode in="blur"/><feMergeNode in="SourceGraphic"/></feMerge>
    </filter>
    <linearGradient id="rainbow-body" x1="0%" y1="0%" x2="100%" y2="100%">
        <stop offset="0%" stop-color="#FF6B6B"/><stop offset="25%" stop-color="#FFE66D"/>
        <stop offset="50%" stop-color="#4ECDC4"/><stop offset="75%" stop-color="#45B7D1"/>
        <stop offset="100%" stop-color="#DDA0DD"/>
    </linearGradient>
    <radialGradient id="galaxy-body" cx="30%" cy="30%">
        <stop offset="0%" stop-color="#E6E6FA"/><stop offset="50%" stop-color="#9370DB"/>
        <stop offset="100%" stop-color="#1A0033"/>
    </radialGradient>
    <linearGradient id="holo-body" x1="0%" y1="0%" x2="100%" y2="100%">
        <stop offset="0%" stop-color="#FF00FF"/><stop offset="50%" stop-color="#00FFFF"/>
        <stop offset="100%" stop-color="#FFFF00"/>
    </linearGradient>
    <linearGradient id="sky-gradient" x1="0%" y1="0%" x2="0%" y2="100%">
        <stop offset="0%" stop-color="#87CEEB"/><stop offset="100%" stop-color="#E0F4FF"/>
    </linearGradient>
    <linearGradient id="grass-gradient" x1="0%" y1="0%" x2="0%" y2="100%">
        <stop offset="0%" stop-color="#90EE90"/><stop offset="100%" stop-color="#228B22"/>
    </linearGradient>
    <linearGradient id="sunset-gradient" x1="0%" y1="0%" x2="0%" y2="100%">
        <stop offset="0%" stop-color="#FF6B6B"/><stop offset="50%" stop-color="#FFE66D"/>
        <stop offset="100%" stop-color="#4ECDC4"/>
    </linearGradient>
    <linearGradient id="aurora-gradient" x1="0%" y1="0%" x2="100%" y2="100%">
        <stop offset="0%" stop-color="#0D1B2A"/><stop offset="30%" stop-color="#00FF7F"/>
        <stop offset="70%" stop-color="#FF00FF"/><stop offset="100%" stop-color="#0D1B2A"/>
    </linearGradient>
    <radialGradient id="multiverse-gradient" cx="50%" cy="50%">
        <stop offset="0%" stop-color="#FFD700"/><stop offset="40%" stop-color="#FF00FF"/>
        <stop offset="70%" stop-color="#00FFFF"/><stop offset="100%" stop-color="#000"/>
    </radialGradient>
    <linearGradient id="rift-gradient" x1="0%" y1="0%" x2="100%" y2="100%">
        <stop offset="0%" stop-color="#000"/><stop offset="30%" stop-color="#9400D3"/>
        <stop offset="50%" stop-color="#00FFFF"/><stop offset="70%" stop-color="#9400D3"/>
        <stop offset="100%" stop-color="#000"/>
    </linearGradient>
    <linearGradient id="heaven-gradient" x1="0%" y1="0%" x2="0%" y2="100%">
        <stop offset="0%" stop-color="#FFF"/><stop offset="50%" stop-color="#FFD700" stop-opacity="0.3"/>
        <stop offset="100%" stop-color="#F0F8FF"/>
    </linearGradient>
    <clipPath id="head-clip"><ellipse cx="200" cy="200" rx="110" ry="115"/></clipPath>
</defs>
<rect width="400" height="400" fill="#0D1B2A"/>
<circle cx="262" cy="258" r="1" fill="white" opacity="0.4"/>
<circle cx="124" cy="116" r="2" fill="white" opacity="0.5"/>
<circle cx="386" cy="374" r="1" fill="white" opacity="0.6000000000000001"/>
<circle cx="248" cy="232" r="2" fill="white" opacity="0.7000000000000001"/>
<circle cx="110" cy="90" r="1" fill="white" opacity="0.8"/>
<circle cx="372" cy="348" r="2" fill="white" opacity="0.4"/>
<circle cx="234" cy="206" r="1" fill="white" opacity="0.5"/>
<circle cx="96" cy="64" r="2" fill="white" opacity="0.6000000000000001"/>
<circle cx="358" cy="322" r="1" fill="white" opacity="0.7000000000000001"/>
<circle cx="220" cy="180" r="2" fill="white" opacity="0.8"/>
<circle cx="82" cy="38" r="1" fill="white" opacity="0.4"/>
<circle cx="344" cy="296" r="2" fill="white" opacity="0.5"/>
<circle cx="206" cy="154" r="1" fill="white" opacity="0.6000000000000001"/>
<circle cx="68" cy="12" r="2" fill="white" opacity="0.7000000000000001"/>
<circle cx="330" cy="270" r="1" fill="white" opacity="0.8"/>
<circle cx="192" cy="128" r="2" fill="white" opacity="0.4"/>
<circle cx="54" cy="386" r="1" fill="white" opacity="0.5"/>
<circle cx="316" cy="244" r="2" fill="white" opacity="0.6000000000000001"/>
<circle cx="178" cy="102" r="1" fill="white" opacity="0.7000000000000001"/>
<circle cx="40" cy="360" r="2" fill="white" opacity="0.8"/>
<circle cx="302" cy="218" r="1" fill="white" opacity="0.4"/>
<circle cx="164" cy="76" r="2" fill="white" opacity="0.5"/>
<circle cx="26" cy="334" r="1" fill="white" opacity="0.6000000000000001"/>
<circle cx="288" cy="192" r="2" fill="white" opacity="0.7000000000000001"/>
<circle cx="150" cy="50" r="1" fill="white" opacity="0.8"/>
<circle cx="12" cy="308" r="2" fill="white" opacity="0.4"/>
<circle cx="274" cy="166" r="1" fill="white" opacity="0.5"/>
<circle cx="136" cy="24" r="2" fill="white" opacity="0.6000000000000001"/>
<circle cx="398" cy="282" r="1" fill="white" opacity="0.7000000000000001"/>
<circle cx="260" cy="140" r="2" fill="white" opacity="0.8"/>
<circle cx="122" cy="398" r="1" fill="white" opacity="0.4"/>
<circle cx="384" cy="256" r="2" fill="white" opacity="0.5"/>
<circle cx="246" cy="114" r="1" fill="white" opacity="0.6000000000000001"/>
<circle cx="108" cy="372" r="2" fill="white" opacity="0.7000000000000001"/>
<circle cx="370" cy="230" r="1" fill="white" opacity="0.8"/>
<circle cx="232" cy="88" r="2" fill="white" opacity="0.4"/>
<circle cx="94" cy="346" r="1" fill="white" opacity="0.5"/>
<circle cx="356" cy="204" r="2" fill="white" opacity="0.6000000000000001"/>
<circle cx="218" cy="62" r="1" fill="white" opacity="0.7000000000000001"/>
<circle cx="80" cy="320" r="2" fill="white" opacity="0.8"/>
<circle cx="200" cy="200" r="165" fill="none" stroke="#00FFFF" stroke-width="3" opacity="0.25" stroke-dasharray="20,10"/>
<ellipse cx="115" cy="140" rx="45" ry="50" fill="#808080" filter="url(#shadow)"/>
<ellipse cx="115" cy="140" rx="30" ry="35" fill="#FFB6C1"/>
<ellipse cx="115" cy="145" rx="18" ry="22" fill="#FF9999"/>
<ellipse cx="285" cy="140" rx="45" ry="50" fill="#808080" filter="url(#shadow)"/>
<ellipse cx="285" cy="140" rx="30" ry="35" fill="#FFB6C1"/>
<ellipse cx="285" cy="145" rx="18" ry="22" fill="#FF9999"/>
<ellipse cx="200" cy="200" rx="110" ry="115" fill="#808080" filter="url(#shadow)"/>
<ellipse cx="180" cy="140" rx="50" ry="30" fill="#A0A0A0" opacity="0.3"/>
<g clip-path="url(#head-clip)"><text x="130" y="130" font-size="16" fill="#FF69B4" opacity="0.4">♥</text><text x="184" y="188" font-size="16" fill="#FF69B4" opacity="0.4">♥</text><text x="238" y="246" font-size="16" fill="#FF69B4" opacity="0.4">♥</text><text x="152" y="164" font-size="16" fill="#FF69B4" opacity="0.4">♥</text><text x="206" y="222" font-size="16" fill="#FF69B4" opacity="0.4">♥</text><text x="260" y="140" font-size="16" fill="#FF69B4" opacity="0.4">♥</text><text x="174" y="198" font-size="16" fill="#FF69B4" opacity="0.4">♥</text></g>
<ellipse cx="200" cy="235" rx="70" ry="60" fill="#FFDAB9"/>
<ellipse cx="200" cy="250" rx="55" ry="40" fill="#DEB887" opacity="0.3"/>
<ellipse cx="162" cy="185" rx="22" ry="24" fill="#000" opacity="0.08"/>
<ellipse cx="238" cy="185" rx="22" ry="24" fill="#000" opacity="0.08"/>
<ellipse cx="162" cy="185" rx="18" ry="20" fill="#FF4500" filter="url(#glow)"/>
<circle cx="162" cy="185" r="10" fill="#FFD700"/>
<circle cx="162" cy="185" r="4" fill="#FFF"/>
<ellipse cx="238" cy="185" rx="18" ry="20" fill="#FF4500" filter="url(#glow)"/>
<circle cx="238" cy="185" r="10" fill="#FFD700"/>
<circle cx="238" cy="185" r="4" fill="#FFF"/>
<g>
            <ellipse cx="200" cy="230" rx="25" ry="18" fill="#8B4513"/>
            <ellipse cx="200" cy="230" rx="22" ry="15" fill="#A0522D"/>
            <ellipse cx="192" cy="230" rx="5" ry="7" fill="#5D2E0C"/>
            <ellipse cx="208" cy="230" rx="5" ry="7" fill="#5D2E0C"/>
        </g>
<line x1="182" y1="260" x2="218" y2="260" stroke="#5D2E0C" stroke-width="2"/>
<rect x="155" y="55" width="90" height="18" rx="3" fill="#8B0000"/><rect x="145" y="70" width="110" height="8" fill="#8B0000"/>

<g transform="translate(325, 15)">
            <rect width="65" height="22" rx="4" fill="#4ECDC4" opacity="0.9"/>
            <text x="32" y="15" font-size="8" fill="#FFF" text-anchor="middle" font-family="sans-serif" font-weight="bold">UNCOMMON</text>
        </g>
        <g transform="translate(10, 15)">
            <rect width="45" height="22" rx="4" fill="#333" opacity="0.8"/>
            <text x="22" y="15" font-size="9" fill="#FFF" text-anchor="middle" font-family="sans-serif">Gen 1</text>
        </g>
</svg>